<svg id="Camada_1" data-name="Camada 1" xmlns="http://www.w3.org/2000/svg" viewBox="0 0 158.58 35.45"><defs><style>.cls-1{fill:#fff;}</style></defs><title>logo-light</title><path class="cls-1" d="M0,0V35.45H158.58V0ZM19.67,23.67H8.43V11.88H12.5v8.65h7.17Zm8.13.18c-5.06,0-7.93-2.08-7.93-6.16,0-3.62,2.73-6.08,7.93-6.08s7.91,2.27,7.91,6.08S33.37,23.85,27.8,23.85Zm23.72-.18H48.29l-.1-1.15a7.19,7.19,0,0,1-4.68,1.33c-2.51,0-4.6-.75-5.77-2.27a6.24,6.24,0,0,1-1.11-3.79,5.82,5.82,0,0,1,1.14-3.67c1.19-1.47,3.34-2.45,6.53-2.45,3.68,0,5.85,1.12,6.78,3a4.22,4.22,0,0,1,.34,1.41H47.53a1.55,1.55,0,0,0-.53-.75,4.13,4.13,0,0,0-2.62-.68,3.88,3.88,0,0,0-3,.95,3.28,3.28,0,0,0-.61,2.21,3.25,3.25,0,0,0,.57,2.11,3.94,3.94,0,0,0,3.11,1,4.38,4.38,0,0,0,3.09-1,1.89,1.89,0,0,0,.37-.8H43.69V16.68h7.83Zm9.07.18c-5.06,0-7.93-2.08-7.93-6.16,0-3.62,2.74-6.08,7.93-6.08s7.92,2.27,7.92,6.08S66.16,23.85,60.59,23.85Zm96,9.6h-81V2h81Z" transform="translate(0 0)"/><path class="cls-1" d="M27.78,14.67c-2.87,0-3.8,1.22-3.8,3.06s.86,3.1,3.82,3.1,3.83-1.29,3.83-3.1S30.92,14.67,27.78,14.67Z" transform="translate(0 0)"/><path class="cls-1" d="M60.58,14.67c-2.87,0-3.8,1.22-3.8,3.06s.85,3.1,3.81,3.1,3.83-1.29,3.83-3.1S63.72,14.67,60.58,14.67Z" transform="translate(0 0)"/><path class="cls-1" d="M82.43,23.62V11.83h2.9V23.62Z" transform="translate(0 0)"/><path class="cls-1" d="M100.22,18.7c-.73,1-2,1.4-3.78,1.41l-5.36,0v3.53H88.24V11.83h8.2A4.7,4.7,0,0,1,100.09,13a4.31,4.31,0,0,1,.88,3A4.26,4.26,0,0,1,100.22,18.7Zm-2.33-3.85c-.3-.45-.94-.7-2-.7H91.06v3.59h4.76c1.17,0,1.79-.24,2.07-.71A1.84,1.84,0,0,0,98.1,16,2.18,2.18,0,0,0,97.89,14.85Z" transform="translate(0 0)"/><path class="cls-1" d="M109.34,23.8c-5.35,0-7-2-7-4h3c0,1,1.33,1.71,4.08,1.71s3.45-.48,3.45-1.26-.54-1.14-3.07-1.42c-.5-.05-1.86-.21-2.38-.29-3.6-.4-5-1.47-5-3.38s2-3.53,6.43-3.53c4.77,0,6.6,1.88,6.6,3.83h-3c0-1-1.12-1.56-3.78-1.56s-3.32.38-3.32,1.11.6,1,3.5,1.35c.66.09,2.13.26,2.54.3,3.06.32,4.44,1.43,4.44,3.4C115.9,22.42,113.8,23.8,109.34,23.8Z" transform="translate(0 0)"/><path class="cls-1" d="M124.44,23.79c-3.92,0-6.47-1.55-6.47-4.8V11.83h2.87V19c0,1.48,1.22,2.47,3.72,2.47,2.27,0,3.62-.93,3.62-2.47v-7.2H131v7.42C131,22.21,128.65,23.79,124.44,23.79Z" transform="translate(0 0)"/><path class="cls-1" d="M146.56,23.62V15.75l-3.68,7.87h-2.79l-3.57-7.87v7.87h-2.7V11.83h3.65l4.06,9,4.14-9h3.6V23.62Z" transform="translate(0 0)"/></svg>