<svg id="Camada_1" data-name="Camada 1" xmlns="http://www.w3.org/2000/svg" viewBox="0 0 209.19 69.29"><title>logo</title><path d="M.46,50.45A.4.4,0,0,1,0,50V.46A.4.4,0,0,1,.46,0H5.59a.41.41,0,0,1,.46.46V50a.41.41,0,0,1-.46.46Z"/><path d="M24.52,18.74a15.21,15.21,0,0,1,11.18,4.6,15.23,15.23,0,0,1,4.65,11.18A15.27,15.27,0,0,1,35.7,45.74a15.21,15.21,0,0,1-11.18,4.6,15.28,15.28,0,0,1-11.17-4.6A15.27,15.27,0,0,1,8.7,34.52a15.23,15.23,0,0,1,4.65-11.18A15.28,15.28,0,0,1,24.52,18.74Zm0,25.7a9.45,9.45,0,0,0,7-2.92,9.8,9.8,0,0,0,0-14,9.48,9.48,0,0,0-7-2.92,9.47,9.47,0,0,0-7,2.92,9.83,9.83,0,0,0,0,14A9.44,9.44,0,0,0,24.52,44.44Z"/><path d="M68.35,19.23a.41.41,0,0,1,.46-.46h5a.41.41,0,0,1,.46.46V50A15.84,15.84,0,0,1,58.47,65.85,15.73,15.73,0,0,1,45,58.32a.4.4,0,0,1,.14-.63l4.36-2.49a.4.4,0,0,1,.63.14,9.82,9.82,0,0,0,16.31.45,10.24,10.24,0,0,0,1.9-6V46.86a15.33,15.33,0,0,1-10,3.62,15.63,15.63,0,0,1-11.54-5,15.17,15.17,0,0,1-4.25-11.88A15.87,15.87,0,0,1,57.77,18.84a15.21,15.21,0,0,1,10.58,3.62Zm-10,25.31a9.83,9.83,0,0,0,9.87-9.88,9.89,9.89,0,0,0-16.87-7,9.84,9.84,0,0,0,0,14A9.52,9.52,0,0,0,58.3,44.54Z"/><path d="M93,18.74a15.77,15.77,0,0,1,15.82,15.78,15.3,15.3,0,0,1-4.64,11.22,15.82,15.82,0,0,1-27-11.22A15.77,15.77,0,0,1,93,18.74Zm0,25.7a10,10,0,0,0,9.91-9.92,9.86,9.86,0,0,0-16.87-7,9.8,9.8,0,0,0,0,14A9.4,9.4,0,0,0,93,44.44Z"/><path d="M123,44.33a2.6,2.6,0,0,0,2.63-.38.39.39,0,0,1,.6.14l3,4a.38.38,0,0,1-.11.64,9.06,9.06,0,0,1-5.24,1.72,7.89,7.89,0,0,1-3.55-.84A7.8,7.8,0,0,1,117,46.37a10,10,0,0,1-1.2-4.92V24.68H111a.4.4,0,0,1-.46-.46v-5a.41.41,0,0,1,.46-.46h4.81l0-6.64a.4.4,0,0,1,.46-.46h5a.4.4,0,0,1,.46.46v6.64h4.82a.4.4,0,0,1,.45.46v5a.4.4,0,0,1-.45.46h-4.82V41.45C121.69,42.93,122.13,43.89,123,44.33Z"/><path d="M136.62,13.08a3.23,3.23,0,0,1-2.39-1,3.3,3.3,0,0,1-1-2.42,3.18,3.18,0,0,1,1-2.39A3.37,3.37,0,0,1,140,9.67a3.38,3.38,0,0,1-1,2.42A3.26,3.26,0,0,1,136.62,13.08Zm2.49,5.8a.4.4,0,0,1,.46.46V50a.4.4,0,0,1-.46.46h-5a.41.41,0,0,1-.46-.46V19.34a.41.41,0,0,1,.46-.46Z"/><path d="M161.7,18.88A15.22,15.22,0,0,1,172,23.38a15.77,15.77,0,0,1,3.83,16.73,15.75,15.75,0,0,1-3.34,5.38A15.74,15.74,0,0,1,151.19,47V68.84a.4.4,0,0,1-.45.45h-5.1a.4.4,0,0,1-.46-.45V19.41a.4.4,0,0,1,.46-.46h5.1a.4.4,0,0,1,.45.46v2.91A15.3,15.3,0,0,1,161.7,18.88ZM161,44.51a9.85,9.85,0,0,0,9.88-9.85A9.85,9.85,0,0,0,161,24.79a9.85,9.85,0,0,0-9.85,9.66v.43a9.42,9.42,0,0,0,3,6.82A9.52,9.52,0,0,0,161,44.51Z"/><path d="M193.37,18.74a15.77,15.77,0,0,1,15.82,15.78,15.3,15.3,0,0,1-4.64,11.22,15.82,15.82,0,0,1-27-11.22,15.77,15.77,0,0,1,15.82-15.78Zm0,25.7a10,10,0,0,0,9.91-9.92,9.9,9.9,0,1,0-16.87,7A9.4,9.4,0,0,0,193.37,44.44Z"/></svg>