<svg id="Camada_1" data-name="Camada 1" xmlns="http://www.w3.org/2000/svg" viewBox="0 0 158.58 35.45"><defs><style>.cls-1{fill:#394149;}.cls-2{fill:#fff;}</style></defs><title>logo-10</title><path class="cls-1" d="M0,0V35.45H158.58V0ZM156.58,33.45h-81V2h81Z"/><path class="cls-2" d="M8.43,23.67V11.88H12.5v8.65h7.17v3.14Z"/><path class="cls-2" d="M35.71,17.69c0,3.75-2.34,6.16-7.91,6.16-5.06,0-7.93-2.08-7.93-6.16,0-3.62,2.73-6.08,7.93-6.08S35.71,13.88,35.71,17.69Zm-4.08,0c0-1.7-.71-3.06-3.85-3.06-2.87,0-3.8,1.22-3.8,3.06s.86,3.1,3.82,3.1S31.63,19.54,31.63,17.73Z"/><path class="cls-2" d="M48.3,23.67l-.11-1.15a7.2,7.2,0,0,1-4.69,1.33c-2.5,0-4.59-.75-5.76-2.27a6.23,6.23,0,0,1-1.11-3.78,5.83,5.83,0,0,1,1.14-3.68c1.19-1.48,3.34-2.45,6.53-2.45,3.68,0,5.85,1.12,6.78,3a4.22,4.22,0,0,1,.34,1.41H47.53a1.55,1.55,0,0,0-.53-.75,4.13,4.13,0,0,0-2.62-.68,3.88,3.88,0,0,0-3,.95,3.27,3.27,0,0,0-.61,2.21,3.25,3.25,0,0,0,.57,2.11,3.94,3.94,0,0,0,3.11,1,4.38,4.38,0,0,0,3.09-1,1.89,1.89,0,0,0,.37-.8H43.69V16.68h7.83v7Z"/><path class="cls-2" d="M68.5,17.69c0,3.75-2.34,6.16-7.91,6.16-5.06,0-7.93-2.08-7.93-6.16,0-3.62,2.74-6.08,7.93-6.08S68.5,13.88,68.5,17.69Zm-4.08,0c0-1.7-.71-3.06-3.84-3.06-2.87,0-3.8,1.22-3.8,3.06s.85,3.1,3.81,3.1S64.42,19.54,64.42,17.73Z"/><path class="cls-1" d="M82.43,23.62V11.83h2.9V23.62Z"/><path class="cls-1" d="M100.22,18.7c-.73,1-2,1.4-3.78,1.41l-5.36,0v3.53H88.24V11.83h8.2A4.7,4.7,0,0,1,100.09,13a4.31,4.31,0,0,1,.88,3A4.26,4.26,0,0,1,100.22,18.7Zm-2.33-3.85c-.3-.45-.94-.7-2-.7H91.06v3.59h4.76c1.17,0,1.79-.24,2.07-.71A1.84,1.84,0,0,0,98.1,16,2.18,2.18,0,0,0,97.89,14.85Z"/><path class="cls-1" d="M109.34,23.8c-5.35,0-7-2-7-4h3c0,1,1.33,1.71,4.08,1.71s3.45-.48,3.45-1.26-.54-1.14-3.07-1.42c-.5-.05-1.86-.21-2.38-.29-3.6-.4-5-1.47-5-3.38s2-3.53,6.43-3.53c4.77,0,6.6,1.88,6.6,3.83h-3c0-1-1.12-1.56-3.78-1.56s-3.32.38-3.32,1.11.6,1,3.5,1.35c.66.09,2.13.26,2.54.3,3.06.32,4.44,1.43,4.44,3.4C115.9,22.42,113.8,23.8,109.34,23.8Z"/><path class="cls-1" d="M124.44,23.79c-3.92,0-6.47-1.55-6.47-4.8V11.83h2.87V19c0,1.48,1.22,2.47,3.72,2.47,2.27,0,3.62-.93,3.62-2.47v-7.2H131v7.42C131,22.21,128.65,23.79,124.44,23.79Z"/><path class="cls-1" d="M146.56,23.62V15.75l-3.68,7.87h-2.79l-3.57-7.87v7.87h-2.7V11.83h3.65l4.06,9,4.14-9h3.6V23.62Z"/></svg>