<svg id="Camada_1" data-name="Camada 1" xmlns="http://www.w3.org/2000/svg" viewBox="0 0 312 275.47"><defs><style>.cls-1{fill:#fff;}</style></defs><title>mask-qrcode</title><rect class="cls-1" y="130" width="312" height="15"/><polygon class="cls-1" points="295.11 0.19 295.11 0 214.61 0 214.61 15 280.99 15 280.99 80.5 295.56 80.5 295.56 0.19 295.11 0.19"/><polygon class="cls-1" points="18.02 0.45 17.83 0.45 17.83 80.95 32.83 80.95 32.83 14.57 98.33 14.57 98.33 0 18.02 0 18.02 0.45"/><polygon class="cls-1" points="295.37 275.01 295.56 275.01 295.56 194.51 280.56 194.51 280.56 260.89 215.06 260.89 215.06 275.47 295.37 275.47 295.37 275.01"/><polygon class="cls-1" points="18.29 275.28 18.29 275.47 98.78 275.47 98.78 260.47 32.4 260.47 32.4 194.97 17.83 194.97 17.83 275.28 18.29 275.28"/></svg>